<?xml version="1.0" encoding="UTF-8" standalone="no"?>
<!DOCTYPE svg PUBLIC "-//W3C//DTD SVG 1.1//EN" "http://www.w3.org/Graphics/SVG/1.1/DTD/svg11.dtd">
<svg width="100%" height="100%" viewBox="0 0 800 800" version="1.1" xmlns="http://www.w3.org/2000/svg" xmlns:xlink="http://www.w3.org/1999/xlink" xml:space="preserve" xmlns:serif="http://www.serif.com/" style="fill-rule:evenodd;clip-rule:evenodd;stroke-linecap:round;stroke-linejoin:round;stroke-miterlimit:1.5;">
    <g transform="matrix(1.31145,0,0,1.31588,-169.697,-174.324)">
        <path d="M434.403,132.478C457.053,132.478 634.059,205.549 650.075,221.511C666.091,237.473 739.409,413.883 739.409,436.457C739.409,459.031 666.091,635.441 650.075,651.403C634.059,667.365 457.053,740.436 434.403,740.436C411.753,740.436 234.747,667.365 218.731,651.403C202.715,635.441 129.397,459.031 129.397,436.457C129.397,413.883 202.715,237.473 218.731,221.511C234.747,205.549 411.753,132.478 434.403,132.478Z" style="fill:rgb(150,6,201);"/>
    </g>
    <g transform="matrix(1.22948,0,0,1.23364,-125.201,-129.539)">
        <path d="M434.403,132.478C461.098,132.478 631.199,202.699 650.075,221.511C668.951,240.323 739.409,409.852 739.409,436.457C739.409,463.062 668.951,632.591 650.075,651.403C631.199,670.215 461.098,740.436 434.403,740.436C407.708,740.436 237.607,670.215 218.731,651.403C199.855,632.591 129.397,463.062 129.397,436.457C129.397,409.852 199.855,240.323 218.731,221.511C237.607,202.699 407.708,132.478 434.403,132.478Z" style="fill:rgb(47,0,60);"/>
    </g>
    <g transform="matrix(3.15866,0,0,4.18494,-886.31,-1082.59)">
        <text x="388.383px" y="356.354px" style="font-family:'Verdana-BoldItalic', 'Verdana', sans-serif;font-weight:700;font-style:italic;font-size:66.667px;fill:white;">PI</text>
    </g>
    <g transform="matrix(0.976845,0.188666,-0.250857,1.29885,129.944,-134.514)">
        <path d="M293.71,217.715L293.71,409.756L92.426,409.756L293.71,217.715Z" style="fill:rgb(150,6,201);"/>
    </g>
    <g transform="matrix(0.877524,0.169483,-0.223397,1.15667,142.722,-71.614)">
        <path d="M293.71,217.715L293.71,409.756L92.426,409.756L293.71,217.715Z" style="fill:white;"/>
    </g>
    <g transform="matrix(0.45714,0.0882912,-0.135627,0.70223,218.151,118.776)">
        <path d="M293.71,217.715L293.71,409.756L92.426,409.756L293.71,217.715Z" style="fill:rgb(67,0,85);"/>
    </g>
    <g transform="matrix(0.968343,0,0,0.954545,59.4569,11.7633)">
        <rect x="53.402" y="416.945" width="551.476" height="90.372" style="fill:rgb(47,0,60);"/>
    </g>
    <g transform="matrix(0.754768,0,0,1,0.0953403,98.1258)">
        <text x="389.217px" y="459.05px" style="font-family:'Verdana-BoldItalic', 'Verdana', sans-serif;font-weight:700;font-style:italic;font-size:166.667px;fill:white;">este</text>
    </g>
    <g transform="matrix(-0.985477,0.00534166,-0.00496303,-0.915625,415.451,786.795)">
        <path d="M193.068,217.715L293.71,409.756L92.426,409.756L193.068,217.715Z" style="fill:rgb(150,6,201);"/>
    </g>
    <g transform="matrix(-0.868229,0.00470613,-0.00461626,-0.85165,398.689,760.915)">
        <path d="M199.797,217.715L293.71,409.756L92.426,409.756L199.797,217.715Z" style="fill:rgb(252,244,255);"/>
    </g>
    <g transform="matrix(0.0381523,0.668605,-0.411803,0.0234985,381.916,355.454)">
        <path d="M98.665,217.715L293.71,409.756L92.426,409.756L98.665,217.715Z" style="fill:rgb(67,0,85);stroke:rgb(67,0,85);stroke-width:1.8px;"/>
    </g>
    <g transform="matrix(1,0,0,0.627907,8.21565,161.407)">
        <rect x="176.301" y="372.533" width="123.038" height="22.609" style="fill:rgb(254,249,255);"/>
    </g>
</svg>
