<?xml version="1.0" encoding="UTF-8" standalone="no"?><!DOCTYPE svg PUBLIC "-//W3C//DTD SVG 1.1//EN" "http://www.w3.org/Graphics/SVG/1.1/DTD/svg11.dtd"><svg width="100%" height="100%" viewBox="0 0 800 800" version="1.1" xmlns="http://www.w3.org/2000/svg" xmlns:xlink="http://www.w3.org/1999/xlink" xml:space="preserve" xmlns:serif="http://www.serif.com/" style="fill-rule:evenodd;clip-rule:evenodd;stroke-linecap:round;stroke-linejoin:round;stroke-miterlimit:1.5;"><path d="M400,0c29.704,0 261.839,96.153 282.843,117.157c21.004,21.004 117.157,253.139 117.157,282.843c-0,29.704 -96.153,261.839 -117.157,282.843c-21.004,21.004 -253.139,117.157 -282.843,117.157c-29.704,-0 -261.839,-96.153 -282.843,-117.157c-21.004,-21.004 -117.157,-253.139 -117.157,-282.843c-0,-29.704 96.153,-261.839 117.157,-282.843c21.004,-21.004 253.139,-117.157 282.843,-117.157Z" style="fill:#9606c9;"/><path d="M408.89,33.89c32.82,-0 241.957,86.627 265.165,109.835c23.207,23.207 109.835,232.344 109.835,265.165c-0,32.82 -86.628,241.957 -109.835,265.165c-23.208,23.207 -232.345,109.835 -265.165,109.835c-32.821,-0 -241.958,-86.628 -265.165,-109.835c-23.208,-23.208 -109.835,-232.345 -109.835,-265.165c-0,-32.821 86.627,-241.958 109.835,-265.165c23.207,-23.208 232.344,-109.835 265.165,-109.835Z" style="fill:#2f003c;"/><path d="M538.874,169.788l-61.18,276.059l-249.704,-42.029l310.884,-234.03Z" style="fill:#9606c9;"/><path d="M525.648,198.908l-54.483,245.84l-224.316,-37.756l278.799,-208.084Z" style="fill:#fff;"/><path d="M488.904,273.73l-33.077,149.253l-116.856,-19.669l149.933,-129.584Z" style="fill:#430055;"/><rect x="220.026" y="397.866" width="315.616" height="95.473" style="fill:#2f003c;"/><path d="M363.453,595.669l-127.166,-194.013l251.911,-1.19l-124.745,195.203Z" style="fill:#9606c9;"/><path d="M363.59,582.341l-104.676,-180.522l221.939,-1.048l-117.263,181.57Z" style="fill:#fcf4ff;"/><path d="M454.787,416.439l-90.983,149.323l-9.752,-148.946l100.735,-0.377Z" style="fill:#430055;stroke:#430055;stroke-width:1px;"/><rect x="313.176" y="381.892" width="156.253" height="15.712" style="fill:#fef9ff;"/></svg>